<svg width="18" height="17" viewBox="0 0 18 17" fill="none" xmlns="http://www.w3.org/2000/svg">
<path d="M0 8.5C0 3.80558 3.80558 0 8.5 0H9.5C14.1944 0 18 3.80558 18 8.5C18 13.1944 14.1944 17 9.5 17H8.5C3.80558 17 0 13.1944 0 8.5Z" fill="#E0E0E0"/>
<g clip-path="url(#clip0)">
<path d="M4.29432 13.4583C4.15601 13.4583 4.0177 13.4086 3.91261 13.3086C3.70165 13.1094 3.70165 12.7864 3.91261 12.5871L13.332 3.69106C13.543 3.49182 13.885 3.49182 14.0959 3.69106C14.3069 3.8903 14.3069 4.21332 14.0959 4.41268L4.67669 13.3086C4.57081 13.408 4.4325 13.4583 4.29432 13.4583Z" fill="#606060"/>
<path d="M13.7144 13.4583C13.5761 13.4583 13.4379 13.4086 13.3327 13.3086L3.91261 4.41268C3.70165 4.21332 3.70165 3.8903 3.91261 3.69106C4.12358 3.49182 4.46559 3.49182 4.67669 3.69106L14.0959 12.5871C14.3069 12.7864 14.3069 13.1094 14.0959 13.3086C13.9901 13.408 13.8519 13.4583 13.7144 13.4583Z" fill="#606060"/>
</g>
<defs>
<clipPath id="clip0">
<rect width="10.5" height="9.91667" fill="white" transform="translate(3.75 3.54163)"/>
</clipPath>
</defs>
</svg>
